<svg width="100" height="100" viewBox="0 0 100 100" fill="none" xmlns="http://www.w3.org/2000/svg">
<path fill-rule="evenodd" clip-rule="evenodd" d="M99.6666 49.6964C99.6666 77.0038 77.5296 99.1408 50.2222 99.1408C48.5478 99.1408 46.8929 99.0576 45.2614 98.8951C54.8027 90.4314 70.9863 68.7549 77.3563 58.1383C82.778 49.1021 72.627 47.8523 63.2223 46.6943C60.0755 46.3069 57.0124 45.9298 54.644 45.2747C46.3691 42.9859 59.2227 39.7718 70.9145 36.8481C72.5702 36.4341 74.2026 36.0259 75.7483 35.627C82.7324 33.8246 88.7432 27.774 91.8319 22.976C96.7901 30.6811 99.6666 39.8528 99.6666 49.6964ZM88.282 18.1317C83.9785 24.4379 70.303 34.1562 48.8152 23.9694C28.711 11.2025 9.75637 35.1866 0.842935 52.2577C0.799648 51.4094 0.77774 50.5554 0.77774 49.6964C0.77774 22.389 22.9148 0.251953 50.2222 0.251953C65.5297 0.251953 79.2125 7.20806 88.282 18.1317ZM1.412 57.6371C2.51122 64.4462 5.00092 70.7897 8.58045 76.367C21.0417 63.149 38.024 44.0943 38.9665 38.8429C42.488 19.2231 17.5606 38.6173 1.412 57.6371ZM14.8475 84.2418C21.053 90.5954 28.9561 95.2837 37.8235 97.5734L54.644 75.8257C56.1004 73.3013 57.8593 70.8004 59.5061 68.4588C64.6775 61.1057 68.7435 55.3244 58.8649 55.3244C47.1751 55.3244 26.5155 72.8108 14.8475 84.2418ZM66.3017 12.9146C66.3017 18.7979 61.5323 23.5673 55.649 23.5673C49.7657 23.5673 44.9963 18.7979 44.9963 12.9146C44.9963 7.03128 49.7657 2.26192 55.649 2.26192C61.5323 2.26192 66.3017 7.03128 66.3017 12.9146Z" fill="url(#paint0_linear_2002_327)" fill-opacity="0.5"/>
<defs>
<linearGradient id="paint0_linear_2002_327" x1="85.5" y1="5.8891" x2="16.8889" y2="85.6113" gradientUnits="userSpaceOnUse">
<stop stop-color="#FFFAFB"/>
<stop offset="0.0339996" stop-color="#FFFAFB" stop-opacity="0.966"/>
<stop offset="1" stop-color="#FFFAFB" stop-opacity="0"/>
</linearGradient>
</defs>
</svg>
